<svg id="visual" viewBox="0 0 960 540" width="960" height="540" xmlns="http://www.w3.org/2000/svg" xmlns:xlink="http://www.w3.org/1999/xlink" version="1.1"><rect x="0" y="0" width="960" height="540" fill="#fafafa"></rect><defs><linearGradient id="grad1_0" x1="43.8%" y1="0%" x2="100%" y2="100%"><stop offset="14.444444444444446%" stop-color="#fafafa" stop-opacity="1"></stop><stop offset="85.55555555555554%" stop-color="#fafafa" stop-opacity="1"></stop></linearGradient></defs><defs><linearGradient id="grad2_0" x1="0%" y1="0%" x2="56.3%" y2="100%"><stop offset="14.444444444444446%" stop-color="#fafafa" stop-opacity="1"></stop><stop offset="85.55555555555554%" stop-color="#fafafa" stop-opacity="1"></stop></linearGradient></defs><g transform="translate(960, 0)"><path d="M0 297C-46 300.4 -92 303.8 -113.7 274.4C-135.3 245 -132.5 182.9 -151.3 151.3C-170.1 119.8 -210.5 118.9 -238.4 98.7C-266.2 78.6 -281.6 39.3 -297 0L0 0Z" fill="#FF0066"></path></g><g transform="translate(0, 540)"><path d="M0 -297C35.6 -273 71.2 -249 92.2 -222.7C113.2 -196.3 119.6 -167.6 152.7 -152.7C185.9 -137.9 245.9 -136.8 274.4 -113.7C302.9 -90.5 300 -45.3 297 0L0 0Z" fill="#FF0066"></path></g></svg>