<svg id="visual" viewBox="0 0 540 960" width="540" height="960" xmlns="http://www.w3.org/2000/svg" xmlns:xlink="http://www.w3.org/1999/xlink" version="1.1"><rect x="0" y="0" width="540" height="960" fill="#fafafa"></rect><defs><linearGradient id="grad1_0" x1="0%" y1="0%" x2="100%" y2="100%"><stop offset="30%" stop-color="#fafafa" stop-opacity="1"></stop><stop offset="70%" stop-color="#fafafa" stop-opacity="1"></stop></linearGradient></defs><defs><linearGradient id="grad2_0" x1="0%" y1="0%" x2="100%" y2="100%"><stop offset="30%" stop-color="#fafafa" stop-opacity="1"></stop><stop offset="70%" stop-color="#fafafa" stop-opacity="1"></stop></linearGradient></defs><g transform="translate(540, 0)"><path d="M0 108C-14.5 107.1 -29 106.1 -41.3 99.8C-53.7 93.5 -63.8 81.7 -70 70C-76.2 58.3 -78.4 46.5 -84.1 34.8C-89.7 23.2 -98.9 11.6 -108 0L0 0Z" fill="#FF0066"></path></g><g transform="translate(0, 960)"><path d="M0 -108C14.2 -106.7 28.4 -105.4 41.3 -99.8C54.3 -94.2 66 -84.3 72.8 -72.8C79.7 -61.4 81.8 -48.4 86.8 -36C91.9 -23.6 100 -11.8 108 0L0 0Z" fill="#FF0066"></path></g></svg>